<?xml version="1.0" standalone="no"?><!DOCTYPE svg PUBLIC "-//W3C//DTD SVG 1.1//EN" "http://www.w3.org/Graphics/SVG/1.1/DTD/svg11.dtd"><svg t="1615940653896" class="icon" viewBox="0 0 1024 1024" version="1.1" xmlns="http://www.w3.org/2000/svg" p-id="1365" data-spm-anchor-id="a313x.7781069.0.i1" xmlns:xlink="http://www.w3.org/1999/xlink" width="200" height="200"><defs></defs><path d="M221.2352 500.992c108.544-197.8368 360.96 84.6848 500.0192-5.3248-68.9152 216.6784-370.7904-63.488-500.0192 5.3248z m95.5392-109.2608c108.544-197.8368 360.96 84.5824 500.0192-5.4272-68.8128 216.8832-370.7904-63.2832-500.0192 5.4272z m95.4368-109.1584c108.6464-198.0416 361.0624 84.5824 500.1216-5.4272-68.8128 216.7808-370.7904-63.2832-500.1216 5.4272z m109.6704-108.544s21.4016-32.0512 131.584 7.0656c109.7728 39.0144 116.736 21.6064 127.8976-5.9392 19.1488-47.8208-220.5696-137.8304-259.4816-1.1264z m-25.3952 442.7776c-25.7024 133.12-157.696 32.768-223.4368 109.7728l67.072 67.1744s14.4384-30.6176 87.7568-25.6c95.8464 6.5536 150.6304-75.1616 149.2992-123.0848z m-150.2208-70.656l-94.3104-34.0992c-48.5376 6.0416-23.9616 64.8192-16.6912 95.232 16.896 69.9392 0.6144 81.1008 0.6144 81.1008l14.9504 15.5648a95.92832 95.92832 0 0 1 68.4032-35.9424c-6.5536-47.0016-24.4736-93.2864 27.0336-121.856z m-55.808 350.5152a16.384 16.384 0 0 1-22.6304-0.4096l-132.9152-134.656a15.27808 15.27808 0 0 1 0.512-22.016 16.16896 16.16896 0 0 1 22.528 0.4096l132.8128 134.656a15.27808 15.27808 0 0 1-0.3072 22.016z m-18.8416 21.504a16.19968 16.19968 0 0 1-22.6304-0.4096l-132.9152-134.656a15.24736 15.24736 0 0 1 0.4096-21.9136 16.19968 16.19968 0 0 1 22.6304 0.4096l132.9152 134.5536a15.45216 15.45216 0 0 1-0.4096 22.016z m38.1952-42.3936a16.30208 16.30208 0 0 1-22.6304-0.512l-132.8128-134.5536a15.36 15.36 0 0 1 0.4096-22.1184 16.16896 16.16896 0 0 1 22.528 0.4096l132.8128 134.5536a15.60576 15.60576 0 0 1-0.3072 22.2208z m19.1488-22.016a16.30208 16.30208 0 0 1-22.6304-0.4096l-132.9152-134.656a15.36 15.36 0 0 1 0.512-22.016 16.384 16.384 0 0 1 22.528 0.3072l132.8128 134.7584a15.19616 15.19616 0 0 1-0.3072 22.016z m-148.0704 48.8448a4.77184 4.77184 0 0 1-6.4512 0.6144l-39.7312-33.1776a4.47488 4.47488 0 0 1-0.512-6.4512l37.7856-43.2128a4.66944 4.66944 0 0 1 6.5536-0.512l39.7312 33.1776a4.52608 4.52608 0 0 1 0.4096 6.3488z" p-id="1366" data-spm-anchor-id="a313x.7781069.0.i0" class="selected" fill="#2c2c2c"></path></svg>